<svg width="14" height="14" viewBox="0 0 14 14" fill="none" xmlns="http://www.w3.org/2000/svg">
  <path d="M9.91666 1.94835C10.8034 2.46034 11.5398 3.19673 12.0518 4.08352C12.5638 4.9703 12.8333 5.97623 12.8333 7.0002C12.8333 8.02417 12.5638 9.0301 12.0518 9.91688C11.5398 10.8037 10.8034 11.54 9.91659 12.052C9.0298 12.564 8.02387 12.8335 6.9999 12.8335C5.97593 12.8335 4.97 12.5639 4.08323 12.0519C3.19645 11.5399 2.46008 10.8035 1.94811 9.91672C1.43614 9.02993 1.16663 8.02399 1.16666 7.00002L1.16957 6.81102C1.20224 5.8036 1.49539 4.82183 2.02045 3.96143C2.5455 3.10103 3.28454 2.39137 4.16551 1.90162C5.04648 1.41187 6.03933 1.15875 7.04724 1.16694C8.05516 1.17513 9.04376 1.44435 9.91666 1.94835ZM6.99999 3.50002C6.84528 3.50002 6.69691 3.56148 6.58751 3.67087C6.47811 3.78027 6.41666 3.92864 6.41666 4.08335C5.95253 4.08335 5.50741 4.26773 5.17922 4.59592C4.85103 4.9241 4.66666 5.36922 4.66666 5.83335C4.66666 6.29748 4.85103 6.7426 5.17922 7.07079C5.50741 7.39898 5.95253 7.58335 6.41666 7.58335V8.75002C6.31994 8.75517 6.22342 8.73673 6.13542 8.69629C6.04741 8.65584 5.97056 8.59461 5.91149 8.51785L5.87182 8.45894C5.79201 8.33022 5.66527 8.2376 5.5184 8.20064C5.37153 8.16369 5.21605 8.1853 5.08483 8.26091C4.9536 8.33652 4.85693 8.46021 4.81525 8.6058C4.77357 8.7514 4.79016 8.90751 4.86149 9.0411C5.01038 9.29932 5.22276 9.51523 5.47848 9.66836C5.73421 9.8215 6.02482 9.90677 6.32274 9.9161H6.41666C6.41653 10.0591 6.46892 10.1971 6.56388 10.304C6.65884 10.4109 6.78974 10.4792 6.93174 10.4959L6.99999 10.5C7.1547 10.5 7.30307 10.4386 7.41247 10.3292C7.52186 10.2198 7.58332 10.0714 7.58332 9.91668L7.68599 9.91377C8.14076 9.88748 8.56736 9.68491 8.87514 9.34908C9.18292 9.01326 9.34762 8.57066 9.33426 8.11533C9.32089 7.66 9.1305 7.22782 8.80355 6.91063C8.4766 6.59345 8.03885 6.41625 7.58332 6.41669V5.25002C7.79216 5.24302 7.97474 5.33169 8.08849 5.48219L8.12816 5.5411C8.20797 5.66981 8.33471 5.76244 8.48158 5.7994C8.62845 5.83635 8.78393 5.81474 8.91515 5.73913C9.04637 5.66351 9.14305 5.53983 9.18473 5.39423C9.2264 5.24863 9.20982 5.09253 9.13849 4.95894C8.98967 4.70061 8.77733 4.48458 8.52159 4.33134C8.26586 4.17811 7.97522 4.09274 7.67724 4.08335H7.58332C7.58332 3.92864 7.52186 3.78027 7.41247 3.67087C7.30307 3.56148 7.1547 3.50002 6.99999 3.50002ZM7.58332 7.58335C7.73803 7.58335 7.88641 7.64481 7.9958 7.75421C8.1052 7.8636 8.16666 8.01198 8.16666 8.16668C8.16666 8.32139 8.1052 8.46977 7.9958 8.57916C7.88641 8.68856 7.73803 8.75002 7.58332 8.75002V7.58335ZM6.41666 5.25002V6.41669C6.26195 6.41669 6.11357 6.35523 6.00418 6.24583C5.89478 6.13643 5.83332 5.98806 5.83332 5.83335C5.83332 5.67864 5.89478 5.53027 6.00418 5.42087C6.11357 5.31148 6.26195 5.25002 6.41666 5.25002Z" fill="#FFEA00"/>
</svg>
