<svg width="110" height="110" viewBox="0 0 110 110" fill="none" xmlns="http://www.w3.org/2000/svg">
<path d="M9.68101 15.1998C9.10931 12.9364 10.8718 10.7583 13.2047 10.8452L91.1302 13.7466C93.0112 13.8167 94.5 15.3619 94.5 17.2442V82.8892C94.5 84.5286 93.362 85.9484 91.7619 86.3053L34.3818 99.1022C32.5324 99.5147 30.6905 98.3804 30.2265 96.5433L9.68101 15.1998Z" fill="#3F51B5" stroke="white" stroke-width="7"/>
<path d="M52.9093 60.4962L38.2382 40.7019C37.8844 40.2246 37.195 40.1592 36.7578 40.5614L31.6727 45.2392C31.2918 45.5896 31.2412 46.1727 31.556 46.5835L52.9159 74.4542C53.3186 74.9796 54.1113 74.9759 54.509 74.4468L85.456 33.2732C85.7648 32.8623 85.7119 32.2843 85.3336 31.9364L80.2468 27.257C79.8079 26.8533 79.1155 26.9209 78.7631 27.4019L54.5194 60.4918C54.1212 61.0352 53.3105 61.0375 52.9093 60.4962Z" fill="white"/>
</svg>
