<svg width="746" height="745" viewBox="0 0 746 745" fill="none" xmlns="http://www.w3.org/2000/svg">
<path d="M460.371 199.127H285.763C281.784 199.131 277.97 200.713 275.156 203.524C272.343 206.335 270.76 210.147 270.755 214.122V601.866L268.754 602.476L225.92 615.582C223.89 616.201 221.697 615.989 219.823 614.994C217.949 613.998 216.547 612.301 215.924 610.274L88.5125 194.438C87.8925 192.41 88.1038 190.218 89.1001 188.345C90.0964 186.473 91.796 185.072 93.8256 184.451L159.833 164.256L351.19 105.732L417.197 85.5378C418.202 85.2289 419.257 85.121 420.304 85.2202C421.35 85.3194 422.366 85.6237 423.295 86.1159C424.223 86.608 425.045 87.2783 425.714 88.0883C426.383 88.8983 426.886 89.8321 427.193 90.8364L459.761 197.127L460.371 199.127Z" fill="#F2F2F2"/>
<path d="M498.473 197.127L459.221 69.0224C458.568 66.8879 457.5 64.9029 456.079 63.1809C454.658 61.4588 452.911 60.0335 450.938 58.9862C448.966 57.939 446.806 57.2903 444.582 57.0775C442.358 56.8646 440.115 57.0916 437.979 57.7455L345.177 86.1277L153.829 144.662L61.0274 173.054C56.7163 174.376 53.1066 177.354 50.9905 181.333C48.8745 185.313 48.425 189.968 49.7407 194.278L183.896 632.088C184.965 635.567 187.122 638.612 190.05 640.776C192.978 642.941 196.523 644.111 200.166 644.114C201.851 644.115 203.528 643.862 205.138 643.364L268.754 623.91L270.755 623.29V621.201L268.754 621.81L204.548 641.455C200.743 642.614 196.632 642.218 193.119 640.353C189.606 638.488 186.976 635.307 185.807 631.508L51.6622 193.688C51.083 191.806 50.8811 189.827 51.0682 187.867C51.2552 185.906 51.8274 184.002 52.7522 182.262C53.6769 180.523 54.936 178.983 56.4572 177.73C57.9785 176.478 59.732 175.538 61.6175 174.963L154.42 146.571L345.767 88.0472L438.569 59.655C439.999 59.2189 441.486 58.9965 442.982 58.9952C446.19 59.0024 449.313 60.036 451.891 61.9448C454.47 63.8535 456.369 66.537 457.31 69.6022L496.382 197.127L497.002 199.127H499.083L498.473 197.127Z" fill="#3F3D56"/>
<path d="M171.744 184.777C169.816 184.776 167.938 184.157 166.388 183.012C164.837 181.866 163.695 180.254 163.128 178.412L150.24 136.352C149.894 135.222 149.774 134.036 149.887 132.859C149.999 131.683 150.343 130.541 150.898 129.497C151.453 128.454 152.208 127.53 153.12 126.778C154.032 126.026 155.084 125.461 156.215 125.115L332.253 71.2662C334.536 70.5699 337.003 70.8074 339.112 71.9264C341.22 73.0455 342.799 74.9548 343.5 77.2352L356.387 119.296C357.084 121.578 356.846 124.042 355.726 126.149C354.606 128.256 352.695 129.833 350.413 130.534L174.375 184.383C173.522 184.644 172.636 184.777 171.744 184.777Z" fill="#F50057"/>
<path d="M239.255 101.934C250.306 101.934 259.266 92.9822 259.266 81.9396C259.266 70.8969 250.306 61.9451 239.255 61.9451C228.203 61.9451 219.243 70.8969 219.243 81.9396C219.243 92.9822 228.203 101.934 239.255 101.934Z" fill="#F50057"/>
<path d="M239.255 94.6007C246.253 94.6007 251.926 88.9321 251.926 81.9396C251.926 74.947 246.253 69.2784 239.255 69.2784C232.256 69.2784 226.583 74.947 226.583 81.9396C226.583 88.9321 232.256 94.6007 239.255 94.6007Z" fill="white"/>
<path d="M651.969 639.006H313.779C311.525 639.003 309.363 638.107 307.768 636.514C306.174 634.921 305.277 632.761 305.275 630.508V225.619C305.277 223.366 306.174 221.206 307.768 219.613C309.363 218.02 311.524 217.124 313.779 217.122H651.969C654.224 217.124 656.386 218.02 657.98 219.613C659.574 221.206 660.471 223.366 660.474 225.619V630.508C660.471 632.761 659.574 634.921 657.98 636.514C656.386 638.107 654.224 639.003 651.969 639.006Z" fill="#E6E6E6"/>
<path d="M496.382 197.127H285.763C281.254 197.133 276.931 198.926 273.743 202.112C270.554 205.298 268.76 209.617 268.754 214.122V621.81L270.755 621.2V214.122C270.76 210.147 272.343 206.335 275.156 203.524C277.97 200.713 281.784 199.131 285.763 199.127H497.002L496.382 197.127ZM679.985 197.127H285.763C281.254 197.133 276.931 198.926 273.743 202.112C270.554 205.298 268.76 209.617 268.754 214.122V671.996C268.76 676.502 270.554 680.821 273.743 684.007C276.931 687.193 281.254 688.985 285.763 688.992H679.985C684.494 688.985 688.817 687.193 692.005 684.007C695.194 680.821 696.988 676.502 696.994 671.996V214.122C696.988 209.617 695.194 205.298 692.005 202.112C688.817 198.926 684.494 197.133 679.985 197.127ZM694.993 671.996C694.988 675.972 693.405 679.784 690.592 682.595C687.778 685.406 683.964 686.988 679.985 686.992H285.763C281.784 686.988 277.97 685.406 275.156 682.595C272.343 679.784 270.76 675.972 270.755 671.996V214.122C270.76 210.147 272.343 206.335 275.156 203.524C277.97 200.713 281.784 199.131 285.763 199.127H679.985C683.964 199.131 687.778 200.713 690.592 203.524C693.405 206.335 694.988 210.147 694.993 214.122V671.996Z" fill="#3F3D56"/>
<path d="M574.926 241.115H390.823C388.435 241.112 386.146 240.164 384.458 238.477C382.77 236.79 381.82 234.503 381.818 232.118V188.13C381.82 185.744 382.77 183.457 384.458 181.77C386.146 180.084 388.435 179.135 390.823 179.132H574.926C577.313 179.135 579.602 180.084 581.29 181.77C582.979 183.457 583.928 185.744 583.931 188.13V232.118C583.928 234.503 582.979 236.79 581.291 238.477C579.602 240.164 577.313 241.112 574.926 241.115Z" fill="#F50057"/>
<path d="M482.874 182.131C493.926 182.131 502.885 173.179 502.885 162.137C502.885 151.094 493.926 142.142 482.874 142.142C471.822 142.142 462.863 151.094 462.863 162.137C462.863 173.179 471.822 182.131 482.874 182.131Z" fill="#F50057"/>
<path d="M482.874 174.315C489.606 174.315 495.063 168.863 495.063 162.137C495.063 155.411 489.606 149.958 482.874 149.958C476.142 149.958 470.685 155.411 470.685 162.137C470.685 168.863 476.142 174.315 482.874 174.315Z" fill="white"/>
</svg>
