<svg width="44" height="44" viewBox="0 0 44 44" fill="none" xmlns="http://www.w3.org/2000/svg">
  <path d="M34.5 24.0833H24.0833V34.5C24.0833 35.0525 23.8638 35.5824 23.4731 35.9731C23.0824 36.3638 22.5525 36.5833 22 36.5833C21.4474 36.5833 20.9175 36.3638 20.5268 35.9731C20.1361 35.5824 19.9166 35.0525 19.9166 34.5V24.0833H9.49996C8.94742 24.0833 8.41752 23.8638 8.02682 23.4731C7.63612 23.0824 7.41663 22.5525 7.41663 22C7.41663 21.4474 7.63612 20.9175 8.02682 20.5268C8.41752 20.1361 8.94742 19.9166 9.49996 19.9166H19.9166V9.49996C19.9166 8.94742 20.1361 8.41752 20.5268 8.02682C20.9175 7.63612 21.4474 7.41663 22 7.41663C22.5525 7.41663 23.0824 7.63612 23.4731 8.02682C23.8638 8.41752 24.0833 8.94742 24.0833 9.49996V19.9166H34.5C35.0525 19.9166 35.5824 20.1361 35.9731 20.5268C36.3638 20.9175 36.5833 21.4474 36.5833 22C36.5833 22.5525 36.3638 23.0824 35.9731 23.4731C35.5824 23.8638 35.0525 24.0833 34.5 24.0833Z" fill="white"/>
</svg>
