<svg width="16" height="16" viewBox="0 0 16 16" fill="none" xmlns="http://www.w3.org/2000/svg">
  <path d="M14.25 3V9.5C14.25 9.83152 14.1183 10.1495 13.8839 10.3839C13.6495 10.6183 13.3315 10.75 13 10.75H7.0575C7.18473 10.8959 7.25063 11.0853 7.2414 11.2787C7.23218 11.472 7.14854 11.6544 7.008 11.7875C6.86746 11.9206 6.68089 11.9942 6.48731 11.9929C6.29374 11.9917 6.10815 11.9156 5.96938 11.7806L4.71938 10.5306C4.64946 10.4609 4.59398 10.3782 4.55612 10.287C4.51827 10.1958 4.49878 10.0981 4.49878 9.99938C4.49878 9.90066 4.51827 9.80293 4.55612 9.71176C4.59398 9.6206 4.64946 9.5378 4.71938 9.46813L5.96938 8.21813C6.10744 8.07916 6.29439 7.99972 6.49026 7.99681C6.68613 7.99389 6.87537 8.06772 7.01751 8.20251C7.15965 8.33731 7.24341 8.52236 7.25088 8.71811C7.25836 8.91386 7.18895 9.10476 7.0575 9.25H12.75V3.25H6.25C6.25 3.44891 6.17098 3.63968 6.03033 3.78033C5.88968 3.92098 5.69891 4 5.5 4C5.30109 4 5.11032 3.92098 4.96967 3.78033C4.82902 3.63968 4.75 3.44891 4.75 3.25V3C4.75 2.66848 4.8817 2.35054 5.11612 2.11612C5.35054 1.8817 5.66848 1.75 6 1.75H13C13.3315 1.75 13.6495 1.8817 13.8839 2.11612C14.1183 2.35054 14.25 2.66848 14.25 3ZM10.5 12C10.3011 12 10.1103 12.079 9.96967 12.2197C9.82902 12.3603 9.75 12.5511 9.75 12.75H3.25V6.75H8.9425C8.81527 6.89589 8.74937 7.08533 8.7586 7.27869C8.76782 7.47205 8.85145 7.65435 8.992 7.78747C9.13254 7.92059 9.31911 7.99421 9.51269 7.99293C9.70626 7.99165 9.89185 7.91558 10.0306 7.78062L11.2806 6.53062C11.3505 6.46095 11.406 6.37815 11.4439 6.28699C11.4817 6.19582 11.5012 6.09809 11.5012 5.99937C11.5012 5.90066 11.4817 5.80292 11.4439 5.71176C11.406 5.6206 11.3505 5.5378 11.2806 5.46812L10.0306 4.21812C9.89256 4.07916 9.70561 3.99972 9.50974 3.99681C9.31387 3.99389 9.12463 4.06772 8.98249 4.20251C8.84035 4.33731 8.75659 4.52236 8.74912 4.71811C8.74164 4.91386 8.81105 5.10476 8.9425 5.25H3C2.66848 5.25 2.35054 5.3817 2.11612 5.61612C1.8817 5.85054 1.75 6.16848 1.75 6.5V13C1.75 13.3315 1.8817 13.6495 2.11612 13.8839C2.35054 14.1183 2.66848 14.25 3 14.25H10C10.3315 14.25 10.6495 14.1183 10.8839 13.8839C11.1183 13.6495 11.25 13.3315 11.25 13V12.75C11.25 12.5511 11.171 12.3603 11.0303 12.2197C10.8897 12.079 10.6989 12 10.5 12Z" fill="white"/>
</svg>
